<?xml version="1.0" encoding="UTF-8" standalone="no"?>
<!-- Created with Inkscape (http://www.inkscape.org/) -->

<svg
   xmlns:dc="http://purl.org/dc/elements/1.1/"
   xmlns:cc="http://creativecommons.org/ns#"
   xmlns:rdf="http://www.w3.org/1999/02/22-rdf-syntax-ns#"
   xmlns:svg="http://www.w3.org/2000/svg"
   xmlns="http://www.w3.org/2000/svg"
   xmlns:xlink="http://www.w3.org/1999/xlink"
   version="1.1"
   width="600"
   height="600"
   id="svg140436">
  <defs
     id="defs140438">
    <linearGradient
       x1="849.61591"
       y1="739.59033"
       x2="529.33826"
       y2="817.93719"
       id="linearGradient37310"
       xlink:href="#linearGradient37027"
       gradientUnits="userSpaceOnUse"
       gradientTransform="matrix(0.66666666,0,0,0.66666666,35.71429,168.07648)" />
    <linearGradient
       id="linearGradient37027">
      <stop
         id="stop37029"
         style="stop-color:#67b0d4;stop-opacity:1"
         offset="0" />
      <stop
         id="stop37031"
         style="stop-color:#00405f;stop-opacity:1"
         offset="1" />
    </linearGradient>
    <linearGradient
       x1="292.60422"
       y1="702.94489"
       x2="921.41156"
       y2="620.33154"
       id="linearGradient37374"
       xlink:href="#linearGradient37352"
       gradientUnits="userSpaceOnUse"
       gradientTransform="matrix(0.66666666,0,0,0.66666666,35.71429,168.07648)" />
    <linearGradient
       id="linearGradient37352">
      <stop
         id="stop37354"
         style="stop-color:#690707;stop-opacity:1"
         offset="0" />
      <stop
         id="stop37356"
         style="stop-color:#f45c5c;stop-opacity:1"
         offset="1" />
    </linearGradient>
    <linearGradient
       x1="268.6875"
       y1="640.90625"
       x2="1254.1106"
       y2="539.82635"
       id="linearGradient37391"
       xlink:href="#linearGradient37352"
       gradientUnits="userSpaceOnUse"
       gradientTransform="matrix(0.66666666,0,0,0.66666666,35.71429,168.07648)" />
    <linearGradient
       id="linearGradient140463">
      <stop
         id="stop140465"
         style="stop-color:#690707;stop-opacity:1"
         offset="0" />
      <stop
         id="stop140467"
         style="stop-color:#f45c5c;stop-opacity:1"
         offset="1" />
    </linearGradient>
    <linearGradient
       x1="371.54645"
       y1="760.57617"
       x2="853.73425"
       y2="684.76624"
       id="linearGradient37382"
       xlink:href="#linearGradient37352"
       gradientUnits="userSpaceOnUse"
       gradientTransform="matrix(0.66666666,0,0,0.66666666,35.71429,168.07648)" />
    <linearGradient
       id="linearGradient140470">
      <stop
         id="stop140472"
         style="stop-color:#690707;stop-opacity:1"
         offset="0" />
      <stop
         id="stop140474"
         style="stop-color:#f45c5c;stop-opacity:1"
         offset="1" />
    </linearGradient>
    <linearGradient
       x1="598.10608"
       y1="422.26315"
       x2="808.4353"
       y2="450.44891"
       id="linearGradient37366"
       xlink:href="#linearGradient37352"
       gradientUnits="userSpaceOnUse"
       gradientTransform="matrix(0.66666666,0,0,0.66666666,35.71429,168.07648)" />
    <linearGradient
       id="linearGradient140477">
      <stop
         id="stop140479"
         style="stop-color:#690707;stop-opacity:1"
         offset="0" />
      <stop
         id="stop140481"
         style="stop-color:#f45c5c;stop-opacity:1"
         offset="1" />
    </linearGradient>
    <linearGradient
       x1="75.690323"
       y1="519.89783"
       x2="519.29205"
       y2="384.80066"
       id="linearGradient37358"
       xlink:href="#linearGradient37352"
       gradientUnits="userSpaceOnUse"
       gradientTransform="matrix(0.66666666,0,0,0.66666666,35.71429,168.07648)"
       spreadMethod="reflect" />
    <linearGradient
       id="linearGradient140484">
      <stop
         id="stop140486"
         style="stop-color:#690707;stop-opacity:1"
         offset="0" />
      <stop
         id="stop140488"
         style="stop-color:#f45c5c;stop-opacity:1"
         offset="1" />
    </linearGradient>
    <radialGradient
       cx="474.57889"
       cy="380.68512"
       r="299.9122"
       fx="474.57889"
       fy="380.68512"
       id="radialGradient37033"
       xlink:href="#linearGradient37027"
       gradientUnits="userSpaceOnUse"
       gradientTransform="matrix(0.79504019,0.00253735,-0.0025141,0.78775532,-24.25199,123.90949)" />
    <linearGradient
       id="linearGradient140491">
      <stop
         id="stop140493"
         style="stop-color:#67b0d4;stop-opacity:1"
         offset="0" />
      <stop
         id="stop140495"
         style="stop-color:#00405f;stop-opacity:1"
         offset="1" />
    </linearGradient>
    <radialGradient
       cx="476.57541"
       cy="438.18167"
       r="450"
       fx="476.57541"
       fy="438.18167"
       id="radialGradient37318"
       xlink:href="#linearGradient37312"
       gradientUnits="userSpaceOnUse"
       gradientTransform="matrix(1,0,0,0.99854167,0,0.65720703)" />
    <linearGradient
       id="linearGradient37312">
      <stop
         id="stop37314"
         style="stop-color:#6dabce;stop-opacity:1"
         offset="0" />
      <stop
         id="stop37320"
         style="stop-color:#81b774;stop-opacity:1"
         offset="0.72330099" />
      <stop
         id="stop37316"
         style="stop-color:#356951;stop-opacity:1"
         offset="1" />
    </linearGradient>
    <radialGradient
       cx="476.57541"
       cy="438.18167"
       r="450"
       fx="476.57541"
       fy="438.18167"
       id="radialGradient140514"
       xlink:href="#linearGradient37312"
       gradientUnits="userSpaceOnUse"
       gradientTransform="matrix(0.66666666,0,0,0.66569444,35.71429,168.51461)" />
  </defs>
  <metadata
     id="metadata140441">
    <rdf:RDF>
      <cc:Work
         rdf:about="">
        <dc:format>image/svg+xml</dc:format>
        <dc:type
           rdf:resource="http://purl.org/dc/dcmitype/StillImage" />
        <dc:title></dc:title>
      </cc:Work>
    </rdf:RDF>
  </metadata>
  <g
     transform="translate(-35.71429,-168.07648)"
     id="layer1">
    <path
       d="m 312.52679,168.95148 c -154.85081,11.83611 -276.8125,141.2414 -276.8125,299.12499 0,19.94535 1.9534,39.43513 5.66667,58.29167 19.38642,-12.28041 40.16869,-26.23311 61.58333,-41.70833 -0.38444,-5.47742 -0.58333,-11.00823 -0.58333,-16.58334 0,-114.39017 82.31026,-209.56281 190.93749,-229.49999 8.61932,-21.37642 14.80841,-46.14823 19.20834,-69.625 z m 64.33333,1.9375 c 11.07567,26.6286 20.38572,51.90026 27.875,74.25 95.17366,29.42736 164.3125,118.0975 164.3125,222.93749 0,9.79136 -0.60153,19.44342 -1.77086,28.91667 21.7718,48.80533 25.3356,88.66746 11,142.25 1.19273,0.15271 2.3348,0.34272 3.45833,0.54166 34.0162,-48.64673 53.9792,-107.84484 53.9792,-171.70833 0,-151.7271 -112.63658,-277.13223 -258.85417,-297.18749 z M 60.90179,588.57647 c 46.40811,105.685 151.98851,179.5 274.8125,179.5 69.33459,0 133.15634,-23.5243 183.95833,-63.0208 -8.7401,-0.344 -16.15266,-1.3932 -21.5,-3.6667 -7.99802,3.8784 -16.63461,7.5095 -26.3125,10.5833 -50.69854,15.1222 -110.8879,16.1941 -160.77083,-0.1458 4.24424,-0.6615 10.63588,-1.8288 19.10416,-2.9375 -10.61264,-1.9335 -20.24814,-4.1079 -28.8125,-6.0625 -43.65274,-9.9628 -101.37113,-9.1646 -103.83333,2.5625 -12.76754,-24.02644 -22.29606,-51.13558 -26.83333,-71.29167 0.20785,-0.13396 0.41682,-0.26267 0.625,-0.39583 -11.98598,-11.89608 -22.68505,-25.07812 -31.875,-39.33333 -25.90913,-1.86326 -52.28449,-3.84104 -78.5625,-5.79167 z"
       id="path36215"
       style="fill:url(#radialGradient140514);fill-opacity:1;fill-rule:evenodd;stroke:none;display:inline" />
    <path
       d="m 305.67262,272.11814 c -95.46936,14.35688 -169.07834,96.30173 -170,195.9375 -0.0539,5.8246 0.16907,11.58891 0.60417,17.29167 56.00666,-45.39399 122.13064,-112.18416 162.5625,-197.66667 2.478,-5.2391 4.74134,-10.4272 6.83333,-15.5625 z m 107.16667,13.22917 c 26.45105,23.40665 82.1363,79.87123 117.95833,167.20833 1.6554,4.03601 3.22827,7.94857 4.75,11.77083 C 533.3348,383.6833 483.38875,314.89118 412.83929,285.34731 z m -16.72917,6.91667 27.79167,274.35416 c 0.007,-1e-5 0.0139,-1e-5 0.0208,0 0.62786,-0.047 0.91076,-0.0457 0.85416,-0.0417 0.6552,-0.0482 1.3175,10e-4 1.95834,0.14584 10.91856,-82.05588 15.08612,-164.68591 -16.5,-246.25 -5.22523,-13.17541 -10.26778,-22.24842 -14.125,-28.20833 z M 170.13096,582.13897 c 8.98968,13.2375 19.5067,25.34975 31.33333,36.0625 l 0.77083,-5.02083 c 0.26409,-1.71856 1.23107,-3.31844 2.62988,-4.35117 1.39881,-1.03273 3.21248,-1.48578 4.93262,-1.23216 0.89423,-1.03104 2.11254,-1.77679 3.4375,-2.10417 9.75202,-2.4309 35.30022,-8.62827 66.16667,-15.35417 z"
       id="path3150"
       style="fill:url(#radialGradient37033);fill-opacity:1;fill-rule:nonzero;stroke:none;display:inline" />
    <path
       d="m 335.52679,168.07648 c -1.05334,24.23376 -6.49398,71.35149 -30.66667,122.45833 -70.87285,149.842 -218.32885,242.0531 -257.5625,264.58333 l 26.33334,1.625 c 75.83005,-5.63391 136.76605,4.97636 209.72916,13.10417 l 121.875,7.625 -26.22917,-283.89583 c -0.67969,-0.81226 -1.22369,-1.7782 -1.58333,-2.8125 l -41.66667,-122.6875 -0.22916,0 z m 15.6875,95.66666 c 0,0 -5.10686,63.95929 -32.27084,130.29167 -32.66777,79.77224 -95.36282,128.78776 -101.08333,133.14583 5.48735,-4.48348 50.63645,-42.9042 90.875,-124.29167 31.01795,-62.73764 42.47917,-139.14583 42.47917,-139.14583 z m 25.10416,131.02083 c -1.10083,12.22491 -4.47634,41.60233 -13.39583,69.33334 -18.15942,56.45822 -58.56129,88.57964 -63.54167,92.375 4.72644,-3.70609 42.27316,-34.89715 64.5625,-107.0625 8.52272,-27.59365 11.40764,-45.89538 12.375,-54.64584 z"
       id="path37344"
       style="fill:url(#linearGradient37358);fill-opacity:1;stroke:none;display:inline" />
    <path
       d="m 342.54762,168.07648 34.1875,100.625 -2.125,-22.85417 -29.79167,-77.77083 z"
       id="path37342"
       style="fill:#b22929;fill-opacity:1;stroke:none;display:inline" />
    <path
       d="m 383.96429,238.51398 -2.9375,6.0625 34.9375,378.56249 6.125,-8.375 z"
       id="path37340"
       style="fill:#990000;fill-opacity:1;stroke:none;display:inline" />
    <path
       d="m 393.96429,278.38898 c 0,0 44.18701,43.21407 47.22916,187.29166 1.91144,90.52633 -17.4375,136.95833 -17.4375,136.95833 52.81674,-51.56372 138.27081,-36.89583 138.27081,-36.89583 0,0 -7.28984,-37.26586 -37.39581,-110.66667 C 477.01371,338.98175 393.96429,278.38898 393.96429,278.38898 z"
       id="path37336"
       style="fill:url(#linearGradient37366);fill-opacity:1;stroke:none;display:inline" />
    <path
       d="m 37.52679,562.11814 -0.83333,0.52083 -0.64584,3.02084 370.60417,27.10416 -0.70834,-7.66666 z"
       id="path37332"
       style="fill:#990000;fill-opacity:1;stroke:none;display:inline" />
    <path
       d="m 563.06842,571.28481 c -0.50173,5.27727 -7.9252,33.09301 -105.79163,65.83333 -108.85552,36.41659 -253.22917,11.33333 -253.22917,11.33333 l 9.3125,24.97917 c 2.22225,-9.52832 52.51775,-6.26147 91.91667,1.83333 41.30992,8.48743 109.76011,21.683 192.37499,-18.04167 44.43498,-21.36617 55.16667,-20.02083 55.16667,-20.02083 7.45624,-22.77217 9.63071,-44.51546 10.24997,-65.91666 z"
       id="path37330"
       style="fill:url(#linearGradient37382);fill-opacity:1;stroke:none;display:inline" />
    <path
       d="m 535.27678,571.55564 c -19.01278,-6.7e-4 -45.70186,2.47025 -71.02083,13.39583 50.6648,-2.40731 75.02083,2.39584 75.02083,2.39584 0.81204,0.20615 1.5827,0.52431 2.27084,0.9375 1.90854,-1.53187 3.58148,-2.97609 5.04166,-4.35417 5.36362,-5.06202 7.85821,-8.97521 9,-11.39583 -4.6105,-0.4634 -11.67032,-0.97885 -20.3125,-0.97917 z m -235.43749,21 c -39.25774,8.18281 -73.33578,16.48827 -85,19.39583 l 2.60416,7.1875 c 13.13502,-2.36186 73.6795,-13.11921 138.95834,-22.45833 l -56.5625,-4.125 z"
       id="path37328"
       style="fill:url(#linearGradient37391);fill-opacity:1;stroke:none;display:inline" />
    <path
       d="m 492.71428,591.84731 c -12.42411,-0.0117 -27.43692,0.4451 -45.12499,1.75 -6.79798,4.2152 -13.31639,9.23046 -19.35417,15.125 -0.0679,0.0637 -0.13741,0.12615 -0.20833,0.1875 l 0.58333,5.75 c 0.53867,1.84542 0.0273,3.88286 -1.35417,5.39583 l -5.875,8.02083 c -2.23789,1.20353 -5.2443,1.34758 -7.63405,0.36577 -2.38975,-0.9818 -4.07631,-3.0539 -4.28261,-5.2616 l -2.35417,-25.52083 C 325.09549,607.76948 233.5447,624.04862 218.69345,626.7223 l -2.47916,15.9375 c 30.33063,4.10768 115.87791,13.21341 195.35416,-1.8125 19.01068,-4.34629 35.70275,-8.92051 50.1875,-13.4375 35.44626,-12.31705 57.87991,-23.85028 71.91667,-33.33333 -6.74154,-0.88095 -20.25148,-2.20974 -40.95834,-2.22916 z"
       id="path37326"
       style="fill:url(#linearGradient37374);fill-opacity:1;stroke:none;display:inline" />
    <path
       d="m 208.81845,614.18064 -4.0625,26.79166 c 0.40096,0.0674 2.03032,0.33645 4.8125,0.75 l 2.79167,-17.8125 z"
       id="path4203"
       style="fill:#990000;fill-opacity:1;stroke:none;display:inline" />
    <path
       d="m 581.08216,646.81672 c -10.12707,-2.02822 -24.14629,-2.23812 -41.8819,3.4608 -40.35839,12.96824 -46.98968,31.93543 -105.01805,51.45775 -34.50983,11.61 -93.2134,11.3047 -93.2134,11.3047 0,0 58.98395,13.4272 127.75868,-8.6986 14.68221,-4.7234 27.12817,-10.2258 38.09544,-16.72381 5.95305,-3.52713 11.55389,-6.62824 16.91021,-9.5292 22.43686,-12.15173 43.29528,-23.52598 76.85788,-23.1471 0,0 -5.92046,-4.96275 -17.53646,-7.68448 -0.64054,-0.15011 -1.29727,-0.30488 -1.9724,-0.44003 z m -2.6602,32.89388 c -19.5662,-4.13764 -44.59596,-2.65904 -70.71683,16.59207 19.23993,6.4255 88.59616,-9.23404 109.98556,1.5845 0,0 -15.65433,-13.18289 -39.26873,-18.17657 z"
       id="path4179"
       style="fill:url(#linearGradient37310);fill-opacity:1;stroke:none;display:inline" />
  </g>
</svg>
